<?xml version="1.0" encoding="utf-8"?>
<!-- Generator: Adobe Illustrator 16.0.0, SVG Export Plug-In . SVG Version: 6.00 Build 0)  -->
<!DOCTYPE svg PUBLIC "-//W3C//DTD SVG 1.1//EN" "http://www.w3.org/Graphics/SVG/1.1/DTD/svg11.dtd">
<svg version="1.1" id="Layer_1" xmlns="http://www.w3.org/2000/svg" xmlns:xlink="http://www.w3.org/1999/xlink" x="0px" y="0px"
	 width="128px" height="128px" viewBox="0 0 128 128" enable-background="new 0 0 128 128" xml:space="preserve">
<g>
	<g>
		<g>
			<path fill="#282D33" d="M64.505,103.52L34.362,73.371c-8.069-8.068-8.069-21.2,0-29.271l0.285-0.282
				c3.901-3.902,9.099-6.055,14.628-6.055c5.53,0,10.728,2.153,14.637,6.063l0.593,0.594l0.595-0.594
				c3.909-3.909,9.107-6.063,14.636-6.063s10.726,2.153,14.635,6.063l0.271,0.269c3.915,3.915,6.067,9.113,6.068,14.642
				c0,5.529-2.153,10.727-6.063,14.635L64.505,103.52z M49.275,41.762c-4.461,0-8.654,1.737-11.807,4.891l-0.285,0.282
				c-6.502,6.504-6.502,17.098,0.007,23.607l27.315,27.318l27.313-27.318c3.154-3.152,4.892-7.346,4.892-11.807
				s-1.737-8.654-4.892-11.809l-0.271-0.269c-3.159-3.16-7.352-4.896-11.812-4.896s-8.653,1.737-11.808,4.891l-3.423,3.423
				l-3.422-3.423C57.929,43.499,53.736,41.762,49.275,41.762z"/>
		</g>
	</g>
	<g>
		<g>
			<rect x="61.022" y="0.001" fill="#282D33" width="4" height="13.19"/>
		</g>
		<g>
			
				<rect x="27.855" y="12.776" transform="matrix(0.5 0.866 -0.866 0.5 30.0209 -22.4469)" fill="#282D33" width="13.19" height="4"/>
		</g>
		<g>
			
				<rect x="7.201" y="34.146" transform="matrix(0.866 0.5 -0.5 0.866 19.9216 -2.0558)" fill="#282D33" width="13.191" height="4"/>
		</g>
		<g>
			<rect y="62.977" fill="#282D33" width="13.191" height="4"/>
		</g>
		<g>
			
				<rect x="12.775" y="86.952" transform="matrix(0.4999 0.8661 -0.8661 0.4999 88.4078 33.9853)" fill="#282D33" width="4.001" height="13.191"/>
		</g>
		<g>
			
				<rect x="34.144" y="107.605" transform="matrix(0.866 0.5 -0.5 0.866 61.9464 -2.7712)" fill="#282D33" width="4" height="13.193"/>
		</g>
		<g>
			<rect x="62.978" y="114.809" fill="#282D33" width="4" height="13.189"/>
		</g>
		<g>
			<rect x="114.809" y="61.021" fill="#282D33" width="13.191" height="4"/>
		</g>
		<g>
			
				<rect x="111.224" y="27.855" transform="matrix(0.5 0.866 -0.866 0.5 86.4434 -80.8285)" fill="#282D33" width="4" height="13.191"/>
		</g>
		<g>
			
				<rect x="89.854" y="7.201" transform="matrix(0.8661 0.4999 -0.4999 0.8661 19.199 -44.0721)" fill="#282D33" width="4.001" height="13.191"/>
		</g>
	</g>
	<g>
		<path fill="#282D33" d="M93.723,122.725L78.187,76.928l45.8,15.535l-13.874,5.307l11.639,11.641l-11.082,11.082l-11.638-11.639
			L93.723,122.725z M97.5,101.664l13.169,13.172l5.426-5.426l-13.172-13.174l9.276-3.549l-27.62-9.367l9.37,27.621L97.5,101.664z"/>
	</g>
</g>
</svg>
