<?xml version="1.0" encoding="utf-8"?>
<!-- Generator: Adobe Illustrator 16.0.0, SVG Export Plug-In . SVG Version: 6.00 Build 0)  -->
<!DOCTYPE svg PUBLIC "-//W3C//DTD SVG 1.1//EN" "http://www.w3.org/Graphics/SVG/1.1/DTD/svg11.dtd">
<svg version="1.1" id="Layer_1" xmlns="http://www.w3.org/2000/svg" xmlns:xlink="http://www.w3.org/1999/xlink" x="0px" y="0px"
	 width="128px" height="128px" viewBox="0 0 128 128" enable-background="new 0 0 128 128" xml:space="preserve">
<g>
	<g>
		<g>
			
				<rect x="33.392" y="45.798" transform="matrix(0.7102 0.704 -0.704 0.7102 72.2112 0.5875)" fill="#282D33" width="4" height="84.395"/>
		</g>
		<g>
			
				<rect x="9.308" y="115.296" transform="matrix(0.7038 0.7104 -0.7104 0.7038 88.2297 22.9858)" fill="#282D33" width="14.486" height="4"/>
		</g>
		<g>
			
				<rect x="23.495" y="100.981" transform="matrix(0.7039 0.7103 -0.7103 0.7039 82.254 8.6625)" fill="#282D33" width="14.485" height="4"/>
		</g>
		<g>
			
				<rect x="17.24" y="106.126" transform="matrix(0.7038 0.7104 -0.7104 0.7038 83.2208 16.6448)" fill="#282D33" width="8.818" height="4"/>
		</g>
		<g>
			<g>
				<g>
					<path fill="#282D33" d="M59.214,61.791c-3.809,0-7.388-1.495-10.078-4.21c-5.545-5.595-5.545-14.698-0.001-20.293
						c2.692-2.716,6.272-4.212,10.081-4.212s7.389,1.496,10.081,4.212c5.544,5.595,5.543,14.698-0.002,20.292
						C66.604,60.295,63.022,61.791,59.214,61.791z M59.216,37.075c-2.733,0-5.305,1.075-7.239,3.028
						c-4.006,4.042-4.006,10.62,0,14.663c1.934,1.951,4.504,3.025,7.237,3.025s5.305-1.075,7.239-3.027
						c4.007-4.042,4.008-10.619,0.002-14.661C64.521,38.15,61.949,37.075,59.216,37.075z"/>
				</g>
				<g>
					<path fill="#282D33" d="M76.92,79.655c-3.809,0-7.389-1.496-10.08-4.211c-5.544-5.595-5.544-14.698-0.001-20.293
						c2.691-2.716,6.271-4.211,10.081-4.211c3.809,0,7.389,1.496,10.081,4.211c5.543,5.593,5.543,14.696-0.001,20.292
						C84.309,78.159,80.729,79.655,76.92,79.655z M76.92,54.94c-2.734,0-5.306,1.075-7.239,3.027c-4.005,4.042-4.005,10.62,0,14.662
						c1.935,1.951,4.506,3.026,7.239,3.026s5.304-1.075,7.238-3.027c4.006-4.043,4.006-10.62,0.001-14.661
						C82.225,56.015,79.653,54.94,76.92,54.94z"/>
				</g>
			</g>
			<g>
				<path fill="#282D33" d="M83.849,54.8c-3.81,0-7.389-1.496-10.08-4.211c-5.546-5.595-5.546-14.698,0.001-20.293
					c2.69-2.715,6.27-4.21,10.078-4.21c3.81,0,7.39,1.496,10.08,4.213c5.544,5.593,5.544,14.695,0,20.29
					C91.237,53.304,87.657,54.8,83.849,54.8z M83.848,30.085c-2.733,0-5.304,1.075-7.237,3.026
					c-4.008,4.042-4.008,10.619-0.001,14.661c1.935,1.952,4.505,3.027,7.239,3.027c2.733,0,5.304-1.075,7.237-3.026
					c4.006-4.042,4.006-10.619,0-14.66C89.152,31.161,86.582,30.085,83.848,30.085z"/>
			</g>
		</g>
	</g>
	<g>
		<path fill="#282D33" d="M64.014,128l-0.802-0.005l0.045-4L64.014,124c1.033,0,2.081-0.027,3.113-0.082l0.211,3.994
			C66.235,127.971,65.117,128,64.014,128z M59.084,127.808c-1.362-0.106-2.744-0.26-4.105-0.456l0.571-3.959
			c1.275,0.184,2.569,0.327,3.845,0.427L59.084,127.808z M71.453,127.561l-0.473-3.973c1.275-0.151,2.563-0.347,3.825-0.581
			l0.729,3.934C74.187,127.189,72.813,127.398,71.453,127.561z M50.911,126.63c-1.347-0.285-2.695-0.617-4.009-0.986l1.082-3.852
			c1.23,0.347,2.494,0.657,3.757,0.926L50.911,126.63z M79.568,126.055l-0.986-3.877c1.24-0.315,2.49-0.678,3.715-1.076l1.238,3.803
			C82.229,125.33,80.894,125.717,79.568,126.055z M42.964,124.396c-1.293-0.457-2.588-0.963-3.848-1.504l1.578-3.676
			c1.18,0.507,2.392,0.98,3.603,1.408L42.964,124.396z M87.416,123.498l-1.484-3.715c1.194-0.478,2.385-1,3.538-1.553l1.729,3.607
			C89.966,122.429,88.693,122.987,87.416,123.498z M35.377,121.137c-1.223-0.623-2.439-1.295-3.617-1.997l2.048-3.436
			c1.103,0.657,2.242,1.286,3.387,1.87L35.377,121.137z M94.86,119.935l-1.961-3.486c1.119-0.63,2.231-1.304,3.307-2.005
			l2.184,3.352C97.242,118.543,96.055,119.263,94.86,119.935z M101.771,115.429l-2.398-3.201c1.022-0.767,2.039-1.581,3.02-2.419
			l2.6,3.039C103.946,113.742,102.862,114.61,101.771,115.429z M108.038,110.064l-2.791-2.865c0.259-0.252,0.517-0.507,0.772-0.766
			c0.657-0.664,1.296-1.339,1.915-2.023l2.967,2.684c-0.66,0.729-1.34,1.447-2.039,2.153
			C108.59,109.522,108.314,109.795,108.038,110.064z M113.572,103.943l-3.133-2.486c0.799-1.007,1.576-2.054,2.309-3.109
			l3.287,2.279C115.253,101.754,114.425,102.87,113.572,103.943z M118.276,97.158l-3.428-2.063c0.66-1.098,1.295-2.234,1.886-3.379
			l3.555,1.834C119.658,94.773,118.981,95.986,118.276,97.158z M8.989,95.892c-0.678-1.188-1.327-2.417-1.929-3.651l3.596-1.752
			c0.563,1.156,1.172,2.308,1.808,3.421L8.989,95.892z M122.063,89.822l-3.666-1.602c0.516-1.181,0.998-2.391,1.434-3.595
			l3.762,1.359C123.128,87.271,122.613,88.562,122.063,89.822z M5.373,88.474c-0.519-1.264-1.003-2.564-1.441-3.868l3.791-1.275
			c0.411,1.222,0.866,2.441,1.352,3.626L5.373,88.474z M124.871,82.061l-3.84-1.117c0.359-1.238,0.683-2.5,0.959-3.749l3.906,0.865
			C125.601,79.393,125.256,80.739,124.871,82.061z M2.741,80.653c-0.353-1.325-0.667-2.678-0.934-4.02l3.923-0.781
			c0.25,1.26,0.545,2.528,0.876,3.771L2.741,80.653z M126.662,74.005l-3.951-0.617c0.197-1.264,0.356-2.557,0.474-3.843l3.984,0.363
			C127.043,71.279,126.873,72.657,126.662,74.005z M1.132,72.562c-0.182-1.36-0.321-2.741-0.415-4.105l3.99-0.275
			c0.088,1.279,0.22,2.576,0.39,3.854L1.132,72.562z M127.413,65.79l-3.998-0.107c0.015-0.563,0.022-1.125,0.023-1.687
			c0-0.727-0.014-1.457-0.04-2.186l3.998-0.146c0.028,0.778,0.042,1.556,0.042,2.335C127.438,64.599,127.43,65.194,127.413,65.79z
			 M0.563,64.331l-0.001-0.353c0-1.254,0.037-2.522,0.109-3.77l3.993,0.232c-0.067,1.17-0.103,2.36-0.103,3.537l0.001,0.336
			L0.563,64.331z M123.137,57.946c-0.128-1.28-0.299-2.571-0.508-3.838l3.947-0.65c0.223,1.351,0.404,2.727,0.541,4.09
			L123.137,57.946z M5.012,56.584l-3.971-0.486c0.167-1.361,0.38-2.733,0.632-4.078l3.932,0.737
			C5.368,54.02,5.168,55.307,5.012,56.584z M121.88,50.311c-0.289-1.248-0.622-2.507-0.992-3.743l3.832-1.146
			c0.394,1.316,0.75,2.658,1.057,3.988L121.88,50.311z M6.44,48.978L2.564,47.99c0.338-1.326,0.724-2.66,1.147-3.966l3.805,1.234
			C7.119,46.483,6.758,47.734,6.44,48.978z M119.658,42.901c-0.447-1.205-0.939-2.41-1.463-3.582l3.652-1.631
			c0.558,1.25,1.083,2.535,1.561,3.82L119.658,42.901z M8.828,41.618L5.111,40.14c0.507-1.275,1.062-2.549,1.648-3.786l3.614,1.714
			C9.823,39.228,9.304,40.422,8.828,41.618z M116.504,35.842c-0.597-1.132-1.24-2.264-1.913-3.363l3.412-2.088
			c0.717,1.172,1.403,2.378,2.04,3.585L116.504,35.842z M12.146,34.627L8.65,32.682c0.667-1.199,1.383-2.391,2.125-3.542
			l3.361,2.168C13.441,32.386,12.771,33.503,12.146,34.627z M112.465,29.25c-0.737-1.046-1.521-2.084-2.329-3.085l3.111-2.513
			c0.862,1.068,1.699,2.176,2.487,3.293L112.465,29.25z M16.34,28.123l-3.214-2.381c0.815-1.102,1.679-2.191,2.564-3.238
			l3.054,2.584C17.914,26.069,17.104,27.09,16.34,28.123z M107.609,23.231c-0.517-0.563-1.047-1.118-1.588-1.664
			c-0.37-0.374-0.742-0.74-1.119-1.1l2.762-2.893c0.404,0.386,0.804,0.778,1.199,1.177c0.576,0.582,1.14,1.173,1.691,1.772
			L107.609,23.231z M21.339,22.212l-2.882-2.774c0.222-0.23,0.444-0.458,0.67-0.686c0.736-0.744,1.505-1.482,2.283-2.194l2.7,2.951
			c-0.73,0.668-1.451,1.36-2.142,2.058C21.756,21.781,21.547,21.996,21.339,22.212z M102.019,17.876
			c-0.989-0.833-2.013-1.64-3.041-2.397l2.371-3.221c1.099,0.808,2.19,1.669,3.246,2.557L102.019,17.876z M27.048,16.99l-2.503-3.12
			c1.071-0.859,2.181-1.692,3.299-2.476l2.296,3.275C29.093,15.403,28.053,16.184,27.048,16.99z M95.789,13.288
			c-1.083-0.693-2.202-1.359-3.326-1.979l1.932-3.503c1.199,0.661,2.395,1.372,3.551,2.112L95.789,13.288z M33.376,12.555
			L31.3,9.136c1.171-0.711,2.381-1.393,3.597-2.026l1.848,3.548C35.605,11.251,34.473,11.889,33.376,12.555z M89.015,9.555
			c-1.166-0.546-2.362-1.058-3.557-1.524l1.453-3.727c1.275,0.497,2.555,1.045,3.799,1.627L89.015,9.555z M40.229,8.986l-1.61-3.661
			c1.255-0.552,2.544-1.069,3.832-1.537l1.367,3.759C42.611,7.985,41.403,8.47,40.229,8.986z M81.811,6.745
			c-1.226-0.388-2.479-0.739-3.726-1.044l0.953-3.885c1.33,0.326,2.669,0.701,3.978,1.115L81.811,6.745z M47.493,6.347l-1.117-3.841
			c1.313-0.382,2.659-0.726,4.001-1.022l0.861,3.906C49.982,5.667,48.723,5.989,47.493,6.347z M74.299,4.902
			c-1.265-0.224-2.553-0.408-3.83-0.548l0.438-3.977c1.362,0.15,2.738,0.347,4.09,0.586L74.299,4.902z M55.042,4.681l-0.606-3.954
			c1.353-0.207,2.732-0.372,4.101-0.491l0.345,3.985C57.6,4.332,56.308,4.486,55.042,4.681z M66.612,4.058
			C65.74,4.019,64.905,3.984,63.996,4c-0.418,0-0.834,0.004-1.252,0.013l-0.086-3.999c0.457-0.01,0.919,0.004,1.371-0.014
			c0.92,0,1.841,0.021,2.761,0.062L66.612,4.058z"/>
	</g>
</g>
</svg>
