<svg xmlns="http://www.w3.org/2000/svg" xmlns:xlink="http://www.w3.org/1999/xlink" width="700" zoomAndPan="magnify" viewBox="0 0 525 45.749998" height="61" preserveAspectRatio="xMidYMid meet" version="1.0"><defs><g><g id="id1"/></g></defs><g fill="rgb(100%, 100%, 100%)" fill-opacity="1"><g transform="translate(5.976775, 31.229349)"><g><path d="M 6.8125 0.171875 C 5.65625 0.171875 4.535156 -0.00390625 3.453125 -0.359375 C 2.367188 -0.722656 1.519531 -1.191406 0.90625 -1.765625 L 1.71875 -3.484375 C 2.300781 -2.953125 3.050781 -2.519531 3.96875 -2.1875 C 4.894531 -1.863281 5.84375 -1.703125 6.8125 -1.703125 C 8.09375 -1.703125 9.046875 -1.914062 9.671875 -2.34375 C 10.304688 -2.78125 10.625 -3.359375 10.625 -4.078125 C 10.625 -4.609375 10.453125 -5.035156 10.109375 -5.359375 C 9.765625 -5.691406 9.335938 -5.945312 8.828125 -6.125 C 8.316406 -6.300781 7.601562 -6.5 6.6875 -6.71875 C 5.519531 -7 4.578125 -7.28125 3.859375 -7.5625 C 3.148438 -7.84375 2.539062 -8.269531 2.03125 -8.84375 C 1.53125 -9.425781 1.28125 -10.210938 1.28125 -11.203125 C 1.28125 -12.023438 1.492188 -12.765625 1.921875 -13.421875 C 2.359375 -14.085938 3.015625 -14.617188 3.890625 -15.015625 C 4.773438 -15.410156 5.875 -15.609375 7.1875 -15.609375 C 8.09375 -15.609375 8.988281 -15.488281 9.875 -15.25 C 10.757812 -15.019531 11.515625 -14.6875 12.140625 -14.25 L 11.421875 -12.484375 C 10.773438 -12.890625 10.082031 -13.195312 9.34375 -13.40625 C 8.613281 -13.625 7.894531 -13.734375 7.1875 -13.734375 C 5.9375 -13.734375 5 -13.503906 4.375 -13.046875 C 3.75 -12.597656 3.4375 -12.007812 3.4375 -11.28125 C 3.4375 -10.757812 3.613281 -10.332031 3.96875 -10 C 4.320312 -9.664062 4.757812 -9.40625 5.28125 -9.21875 C 5.800781 -9.039062 6.507812 -8.847656 7.40625 -8.640625 C 8.570312 -8.359375 9.503906 -8.078125 10.203125 -7.796875 C 10.910156 -7.523438 11.515625 -7.101562 12.015625 -6.53125 C 12.523438 -5.957031 12.78125 -5.1875 12.78125 -4.21875 C 12.78125 -3.40625 12.5625 -2.660156 12.125 -1.984375 C 11.6875 -1.316406 11.019531 -0.789062 10.125 -0.40625 C 9.226562 -0.0195312 8.125 0.171875 6.8125 0.171875 Z M 6.8125 0.171875 "/></g></g></g><g fill="rgb(100%, 100%, 100%)" fill-opacity="1"><g transform="translate(20.765781, 31.229349)"><g><path d="M 15.59375 -15.4375 L 15.59375 0 L 13.375 0 L 13.375 -6.875 L 4.515625 -6.875 L 4.515625 0 L 2.3125 0 L 2.3125 -15.4375 L 4.515625 -15.4375 L 4.515625 -8.796875 L 13.375 -8.796875 L 13.375 -15.4375 Z M 15.59375 -15.4375 "/></g></g></g><g fill="rgb(100%, 100%, 100%)" fill-opacity="1"><g transform="translate(39.764382, 31.229349)"><g><path d="M 12.140625 -3.859375 L 3.953125 -3.859375 L 2.25 0 L -0.015625 0 L 6.96875 -15.4375 L 9.15625 -15.4375 L 16.15625 0 L 13.84375 0 Z M 11.375 -5.625 L 8.046875 -13.1875 L 4.71875 -5.625 Z M 11.375 -5.625 "/></g></g></g><g fill="rgb(100%, 100%, 100%)" fill-opacity="1"><g transform="translate(56.9998, 31.229349)"><g><path d="M 15.59375 -15.4375 L 15.59375 0 L 13.78125 0 L 4.515625 -11.515625 L 4.515625 0 L 2.3125 0 L 2.3125 -15.4375 L 4.125 -15.4375 L 13.375 -3.921875 L 13.375 -15.4375 Z M 15.59375 -15.4375 "/></g></g></g><g fill="rgb(100%, 100%, 100%)" fill-opacity="1"><g transform="translate(75.998401, 31.229349)"><g><path d="M 15.59375 -15.4375 L 15.59375 0 L 13.78125 0 L 4.515625 -11.515625 L 4.515625 0 L 2.3125 0 L 2.3125 -15.4375 L 4.125 -15.4375 L 13.375 -3.921875 L 13.375 -15.4375 Z M 15.59375 -15.4375 "/></g></g></g><g fill="rgb(100%, 100%, 100%)" fill-opacity="1"><g transform="translate(94.997003, 31.229349)"><g><path d="M 12.140625 -3.859375 L 3.953125 -3.859375 L 2.25 0 L -0.015625 0 L 6.96875 -15.4375 L 9.15625 -15.4375 L 16.15625 0 L 13.84375 0 Z M 11.375 -5.625 L 8.046875 -13.1875 L 4.71875 -5.625 Z M 11.375 -5.625 "/></g></g></g><g fill="rgb(100%, 100%, 100%)" fill-opacity="1"><g transform="translate(112.232419, 31.229349)"><g/></g></g><g fill="rgb(100%, 100%, 100%)" fill-opacity="1"><g transform="translate(119.263414, 31.229349)"><g><path d="M 6.8125 0.171875 C 5.65625 0.171875 4.535156 -0.00390625 3.453125 -0.359375 C 2.367188 -0.722656 1.519531 -1.191406 0.90625 -1.765625 L 1.71875 -3.484375 C 2.300781 -2.953125 3.050781 -2.519531 3.96875 -2.1875 C 4.894531 -1.863281 5.84375 -1.703125 6.8125 -1.703125 C 8.09375 -1.703125 9.046875 -1.914062 9.671875 -2.34375 C 10.304688 -2.78125 10.625 -3.359375 10.625 -4.078125 C 10.625 -4.609375 10.453125 -5.035156 10.109375 -5.359375 C 9.765625 -5.691406 9.335938 -5.945312 8.828125 -6.125 C 8.316406 -6.300781 7.601562 -6.5 6.6875 -6.71875 C 5.519531 -7 4.578125 -7.28125 3.859375 -7.5625 C 3.148438 -7.84375 2.539062 -8.269531 2.03125 -8.84375 C 1.53125 -9.425781 1.28125 -10.210938 1.28125 -11.203125 C 1.28125 -12.023438 1.492188 -12.765625 1.921875 -13.421875 C 2.359375 -14.085938 3.015625 -14.617188 3.890625 -15.015625 C 4.773438 -15.410156 5.875 -15.609375 7.1875 -15.609375 C 8.09375 -15.609375 8.988281 -15.488281 9.875 -15.25 C 10.757812 -15.019531 11.515625 -14.6875 12.140625 -14.25 L 11.421875 -12.484375 C 10.773438 -12.890625 10.082031 -13.195312 9.34375 -13.40625 C 8.613281 -13.625 7.894531 -13.734375 7.1875 -13.734375 C 5.9375 -13.734375 5 -13.503906 4.375 -13.046875 C 3.75 -12.597656 3.4375 -12.007812 3.4375 -11.28125 C 3.4375 -10.757812 3.613281 -10.332031 3.96875 -10 C 4.320312 -9.664062 4.757812 -9.40625 5.28125 -9.21875 C 5.800781 -9.039062 6.507812 -8.847656 7.40625 -8.640625 C 8.570312 -8.359375 9.503906 -8.078125 10.203125 -7.796875 C 10.910156 -7.523438 11.515625 -7.101562 12.015625 -6.53125 C 12.523438 -5.957031 12.78125 -5.1875 12.78125 -4.21875 C 12.78125 -3.40625 12.5625 -2.660156 12.125 -1.984375 C 11.6875 -1.316406 11.019531 -0.789062 10.125 -0.40625 C 9.226562 -0.0195312 8.125 0.171875 6.8125 0.171875 Z M 6.8125 0.171875 "/></g></g></g><g fill="rgb(100%, 100%, 100%)" fill-opacity="1"><g transform="translate(134.052422, 31.229349)"><g><path d="M 24.125 -15.4375 L 18.953125 0 L 16.640625 0 L 12.4375 -12.328125 L 8.21875 0 L 5.859375 0 L 0.703125 -15.4375 L 2.96875 -15.4375 L 7.140625 -2.890625 L 11.484375 -15.4375 L 13.515625 -15.4375 L 17.765625 -2.828125 L 22.03125 -15.4375 Z M 24.125 -15.4375 "/></g></g></g><g fill="rgb(100%, 100%, 100%)" fill-opacity="1"><g transform="translate(159.971523, 31.229349)"><g><path d="M 2.3125 -15.4375 L 4.515625 -15.4375 L 4.515625 0 L 2.3125 0 Z M 2.3125 -15.4375 "/></g></g></g><g fill="rgb(100%, 100%, 100%)" fill-opacity="1"><g transform="translate(167.906149, 31.229349)"><g><path d="M 15.59375 -15.4375 L 15.59375 0 L 13.78125 0 L 4.515625 -11.515625 L 4.515625 0 L 2.3125 0 L 2.3125 -15.4375 L 4.125 -15.4375 L 13.375 -3.921875 L 13.375 -15.4375 Z M 15.59375 -15.4375 "/></g></g></g><g fill="rgb(100%, 100%, 100%)" fill-opacity="1"><g transform="translate(186.90475, 31.229349)"><g><path d="M 2.3125 -15.4375 L 8.8125 -15.4375 C 10.445312 -15.4375 11.894531 -15.113281 13.15625 -14.46875 C 14.425781 -13.820312 15.410156 -12.910156 16.109375 -11.734375 C 16.804688 -10.566406 17.15625 -9.226562 17.15625 -7.71875 C 17.15625 -6.207031 16.804688 -4.863281 16.109375 -3.6875 C 15.410156 -2.519531 14.425781 -1.613281 13.15625 -0.96875 C 11.894531 -0.320312 10.445312 0 8.8125 0 L 2.3125 0 Z M 8.6875 -1.921875 C 9.9375 -1.921875 11.035156 -2.160156 11.984375 -2.640625 C 12.929688 -3.128906 13.660156 -3.8125 14.171875 -4.6875 C 14.691406 -5.5625 14.953125 -6.570312 14.953125 -7.71875 C 14.953125 -8.863281 14.691406 -9.875 14.171875 -10.75 C 13.660156 -11.625 12.929688 -12.300781 11.984375 -12.78125 C 11.035156 -13.269531 9.9375 -13.515625 8.6875 -13.515625 L 4.515625 -13.515625 L 4.515625 -1.921875 Z M 8.6875 -1.921875 "/></g></g></g><g fill="rgb(100%, 100%, 100%)" fill-opacity="1"><g transform="translate(206.211915, 31.229349)"><g><path d="M 2.3125 -15.4375 L 4.515625 -15.4375 L 4.515625 -1.921875 L 12.875 -1.921875 L 12.875 0 L 2.3125 0 Z M 2.3125 -15.4375 "/></g></g></g><g fill="rgb(100%, 100%, 100%)" fill-opacity="1"><g transform="translate(220.405844, 31.229349)"><g><path d="M 13.515625 -1.921875 L 13.515625 0 L 2.3125 0 L 2.3125 -15.4375 L 13.203125 -15.4375 L 13.203125 -13.515625 L 4.515625 -13.515625 L 4.515625 -8.78125 L 12.265625 -8.78125 L 12.265625 -6.90625 L 4.515625 -6.90625 L 4.515625 -1.921875 Z M 13.515625 -1.921875 "/></g></g></g><g fill="rgb(100%, 100%, 100%)" fill-opacity="1"><g transform="translate(236.2748, 31.229349)"><g/></g></g><g fill="rgb(100%, 100%, 100%)" fill-opacity="1"><g transform="translate(243.305784, 31.229349)"><g><path d="M 2.3125 -16.359375 L 4.28125 -16.359375 L 4.28125 4.28125 L 2.3125 4.28125 Z M 2.3125 -16.359375 "/></g></g></g><g fill="rgb(100%, 100%, 100%)" fill-opacity="1"><g transform="translate(250.997964, 31.229349)"><g/></g></g><g fill="rgb(100%, 100%, 100%)" fill-opacity="1"><g transform="translate(258.028948, 31.229349)"><g><path d="M 24.125 -15.4375 L 18.953125 0 L 16.640625 0 L 12.4375 -12.328125 L 8.21875 0 L 5.859375 0 L 0.703125 -15.4375 L 2.96875 -15.4375 L 7.140625 -2.890625 L 11.484375 -15.4375 L 13.515625 -15.4375 L 17.765625 -2.828125 L 22.03125 -15.4375 Z M 24.125 -15.4375 "/></g></g></g><g fill="rgb(100%, 100%, 100%)" fill-opacity="1"><g transform="translate(283.948049, 31.229349)"><g><path d="M 13.515625 -1.921875 L 13.515625 0 L 2.3125 0 L 2.3125 -15.4375 L 13.203125 -15.4375 L 13.203125 -13.515625 L 4.515625 -13.515625 L 4.515625 -8.78125 L 12.265625 -8.78125 L 12.265625 -6.90625 L 4.515625 -6.90625 L 4.515625 -1.921875 Z M 13.515625 -1.921875 "/></g></g></g><g fill="rgb(100%, 100%, 100%)" fill-opacity="1"><g transform="translate(299.817005, 31.229349)"><g><path d="M 12.703125 -8 C 13.597656 -7.75 14.300781 -7.296875 14.8125 -6.640625 C 15.332031 -5.992188 15.59375 -5.171875 15.59375 -4.171875 C 15.59375 -2.828125 15.085938 -1.796875 14.078125 -1.078125 C 13.066406 -0.359375 11.597656 0 9.671875 0 L 2.3125 0 L 2.3125 -15.4375 L 9.234375 -15.4375 C 11.003906 -15.4375 12.367188 -15.082031 13.328125 -14.375 C 14.285156 -13.664062 14.765625 -12.6875 14.765625 -11.4375 C 14.765625 -10.632812 14.578125 -9.9375 14.203125 -9.34375 C 13.828125 -8.757812 13.328125 -8.3125 12.703125 -8 Z M 4.515625 -13.640625 L 4.515625 -8.703125 L 9.046875 -8.703125 C 10.171875 -8.703125 11.035156 -8.910156 11.640625 -9.328125 C 12.253906 -9.753906 12.5625 -10.367188 12.5625 -11.171875 C 12.5625 -11.984375 12.253906 -12.597656 11.640625 -13.015625 C 11.035156 -13.429688 10.171875 -13.640625 9.046875 -13.640625 Z M 9.59375 -1.78125 C 10.84375 -1.78125 11.78125 -1.984375 12.40625 -2.390625 C 13.039062 -2.804688 13.359375 -3.457031 13.359375 -4.34375 C 13.359375 -6.0625 12.101562 -6.921875 9.59375 -6.921875 L 4.515625 -6.921875 L 4.515625 -1.78125 Z M 9.59375 -1.78125 "/></g></g></g><g fill="rgb(100%, 100%, 100%)" fill-opacity="1"><g transform="translate(317.603424, 31.229349)"><g/></g></g><g fill="rgb(100%, 100%, 100%)" fill-opacity="1"><g transform="translate(324.634407, 31.229349)"><g><path d="M 2.3125 -15.4375 L 8.8125 -15.4375 C 10.445312 -15.4375 11.894531 -15.113281 13.15625 -14.46875 C 14.425781 -13.820312 15.410156 -12.910156 16.109375 -11.734375 C 16.804688 -10.566406 17.15625 -9.226562 17.15625 -7.71875 C 17.15625 -6.207031 16.804688 -4.863281 16.109375 -3.6875 C 15.410156 -2.519531 14.425781 -1.613281 13.15625 -0.96875 C 11.894531 -0.320312 10.445312 0 8.8125 0 L 2.3125 0 Z M 8.6875 -1.921875 C 9.9375 -1.921875 11.035156 -2.160156 11.984375 -2.640625 C 12.929688 -3.128906 13.660156 -3.8125 14.171875 -4.6875 C 14.691406 -5.5625 14.953125 -6.570312 14.953125 -7.71875 C 14.953125 -8.863281 14.691406 -9.875 14.171875 -10.75 C 13.660156 -11.625 12.929688 -12.300781 11.984375 -12.78125 C 11.035156 -13.269531 9.9375 -13.515625 8.6875 -13.515625 L 4.515625 -13.515625 L 4.515625 -1.921875 Z M 8.6875 -1.921875 "/></g></g></g><g fill="rgb(100%, 100%, 100%)" fill-opacity="1"><g transform="translate(343.941561, 31.229349)"><g><path d="M 13.515625 -1.921875 L 13.515625 0 L 2.3125 0 L 2.3125 -15.4375 L 13.203125 -15.4375 L 13.203125 -13.515625 L 4.515625 -13.515625 L 4.515625 -8.78125 L 12.265625 -8.78125 L 12.265625 -6.90625 L 4.515625 -6.90625 L 4.515625 -1.921875 Z M 13.515625 -1.921875 "/></g></g></g><g fill="rgb(100%, 100%, 100%)" fill-opacity="1"><g transform="translate(359.810517, 31.229349)"><g><path d="M 15.71875 -15.4375 L 8.953125 0 L 6.765625 0 L -0.015625 -15.4375 L 2.359375 -15.4375 L 7.921875 -2.75 L 13.515625 -15.4375 Z M 15.71875 -15.4375 "/></g></g></g><g fill="rgb(100%, 100%, 100%)" fill-opacity="1"><g transform="translate(376.605141, 31.229349)"><g><path d="M 13.515625 -1.921875 L 13.515625 0 L 2.3125 0 L 2.3125 -15.4375 L 13.203125 -15.4375 L 13.203125 -13.515625 L 4.515625 -13.515625 L 4.515625 -8.78125 L 12.265625 -8.78125 L 12.265625 -6.90625 L 4.515625 -6.90625 L 4.515625 -1.921875 Z M 13.515625 -1.921875 "/></g></g></g><g fill="rgb(100%, 100%, 100%)" fill-opacity="1"><g transform="translate(392.474097, 31.229349)"><g><path d="M 2.3125 -15.4375 L 4.515625 -15.4375 L 4.515625 -1.921875 L 12.875 -1.921875 L 12.875 0 L 2.3125 0 Z M 2.3125 -15.4375 "/></g></g></g><g fill="rgb(100%, 100%, 100%)" fill-opacity="1"><g transform="translate(406.668003, 31.229349)"><g><path d="M 9.28125 0.171875 C 7.71875 0.171875 6.3125 -0.164062 5.0625 -0.84375 C 3.820312 -1.53125 2.84375 -2.472656 2.125 -3.671875 C 1.414062 -4.878906 1.0625 -6.226562 1.0625 -7.71875 C 1.0625 -9.195312 1.414062 -10.539062 2.125 -11.75 C 2.84375 -12.957031 3.820312 -13.898438 5.0625 -14.578125 C 6.3125 -15.265625 7.71875 -15.609375 9.28125 -15.609375 C 10.820312 -15.609375 12.21875 -15.265625 13.46875 -14.578125 C 14.71875 -13.898438 15.695312 -12.960938 16.40625 -11.765625 C 17.113281 -10.566406 17.46875 -9.21875 17.46875 -7.71875 C 17.46875 -6.21875 17.113281 -4.867188 16.40625 -3.671875 C 15.695312 -2.472656 14.71875 -1.53125 13.46875 -0.84375 C 12.21875 -0.164062 10.820312 0.171875 9.28125 0.171875 Z M 9.28125 -1.78125 C 10.414062 -1.78125 11.429688 -2.035156 12.328125 -2.546875 C 13.234375 -3.066406 13.945312 -3.78125 14.46875 -4.6875 C 14.988281 -5.59375 15.25 -6.601562 15.25 -7.71875 C 15.25 -8.832031 14.988281 -9.84375 14.46875 -10.75 C 13.945312 -11.65625 13.234375 -12.363281 12.328125 -12.875 C 11.429688 -13.382812 10.414062 -13.640625 9.28125 -13.640625 C 8.144531 -13.640625 7.117188 -13.382812 6.203125 -12.875 C 5.285156 -12.363281 4.566406 -11.65625 4.046875 -10.75 C 3.523438 -9.84375 3.265625 -8.832031 3.265625 -7.71875 C 3.265625 -6.601562 3.523438 -5.59375 4.046875 -4.6875 C 4.566406 -3.78125 5.285156 -3.066406 6.203125 -2.546875 C 7.117188 -2.035156 8.144531 -1.78125 9.28125 -1.78125 Z M 9.28125 -1.78125 "/></g></g></g><g fill="rgb(100%, 100%, 100%)" fill-opacity="1"><g transform="translate(426.283696, 31.229349)"><g><path d="M 8.328125 -15.4375 C 10.328125 -15.4375 11.898438 -14.957031 13.046875 -14 C 14.191406 -13.039062 14.765625 -11.722656 14.765625 -10.046875 C 14.765625 -8.378906 14.191406 -7.066406 13.046875 -6.109375 C 11.898438 -5.148438 10.328125 -4.671875 8.328125 -4.671875 L 4.515625 -4.671875 L 4.515625 0 L 2.3125 0 L 2.3125 -15.4375 Z M 8.265625 -6.59375 C 9.660156 -6.59375 10.722656 -6.890625 11.453125 -7.484375 C 12.191406 -8.078125 12.5625 -8.929688 12.5625 -10.046875 C 12.5625 -11.171875 12.191406 -12.03125 11.453125 -12.625 C 10.722656 -13.21875 9.660156 -13.515625 8.265625 -13.515625 L 4.515625 -13.515625 L 4.515625 -6.59375 Z M 8.265625 -6.59375 "/></g></g></g><g fill="rgb(100%, 100%, 100%)" fill-opacity="1"><g transform="translate(443.298719, 31.229349)"><g><path d="M 16.625 0 L 16.59375 -11.25 L 11.015625 -1.875 L 10.015625 -1.875 L 4.4375 -11.171875 L 4.4375 0 L 2.3125 0 L 2.3125 -15.4375 L 4.125 -15.4375 L 10.5625 -4.578125 L 16.90625 -15.4375 L 18.71875 -15.4375 L 18.734375 0 Z M 16.625 0 "/></g></g></g><g fill="rgb(100%, 100%, 100%)" fill-opacity="1"><g transform="translate(465.449024, 31.229349)"><g><path d="M 13.515625 -1.921875 L 13.515625 0 L 2.3125 0 L 2.3125 -15.4375 L 13.203125 -15.4375 L 13.203125 -13.515625 L 4.515625 -13.515625 L 4.515625 -8.78125 L 12.265625 -8.78125 L 12.265625 -6.90625 L 4.515625 -6.90625 L 4.515625 -1.921875 Z M 13.515625 -1.921875 "/></g></g></g><g fill="rgb(100%, 100%, 100%)" fill-opacity="1"><g transform="translate(481.31798, 31.229349)"><g><path d="M 15.59375 -15.4375 L 15.59375 0 L 13.78125 0 L 4.515625 -11.515625 L 4.515625 0 L 2.3125 0 L 2.3125 -15.4375 L 4.125 -15.4375 L 13.375 -3.921875 L 13.375 -15.4375 Z M 15.59375 -15.4375 "/></g></g></g><g fill="rgb(100%, 100%, 100%)" fill-opacity="1"><g transform="translate(500.316594, 31.229349)"><g><path d="M 5.375 -13.515625 L 0.09375 -13.515625 L 0.09375 -15.4375 L 12.859375 -15.4375 L 12.859375 -13.515625 L 7.5625 -13.515625 L 7.5625 0 L 5.375 0 Z M 5.375 -13.515625 "/></g></g></g></svg>