<svg xmlns="http://www.w3.org/2000/svg" xmlns:xlink="http://www.w3.org/1999/xlink" width="300" zoomAndPan="magnify" viewBox="0 0 224.87999 45.749998" height="61" preserveAspectRatio="xMidYMid meet" version="1.0"><defs><g><g id="id1"/></g></defs><g fill="rgb(0%, 0%, 0%)" fill-opacity="1"><g transform="translate(2.362477, 29.662983)"><g><path d="M 6.5 0.171875 C 5.394531 0.171875 4.328125 0 3.296875 -0.34375 C 2.265625 -0.6875 1.453125 -1.132812 0.859375 -1.6875 L 1.640625 -3.328125 C 2.203125 -2.816406 2.921875 -2.40625 3.796875 -2.09375 C 4.671875 -1.78125 5.570312 -1.625 6.5 -1.625 C 7.71875 -1.625 8.628906 -1.828125 9.234375 -2.234375 C 9.835938 -2.648438 10.140625 -3.203125 10.140625 -3.890625 C 10.140625 -4.398438 9.972656 -4.8125 9.640625 -5.125 C 9.316406 -5.4375 8.910156 -5.675781 8.421875 -5.84375 C 7.941406 -6.019531 7.257812 -6.210938 6.375 -6.421875 C 5.269531 -6.679688 4.375 -6.945312 3.6875 -7.21875 C 3.007812 -7.488281 2.425781 -7.898438 1.9375 -8.453125 C 1.457031 -9.003906 1.21875 -9.75 1.21875 -10.6875 C 1.21875 -11.476562 1.425781 -12.1875 1.84375 -12.8125 C 2.257812 -13.445312 2.882812 -13.953125 3.71875 -14.328125 C 4.5625 -14.710938 5.609375 -14.90625 6.859375 -14.90625 C 7.734375 -14.90625 8.585938 -14.789062 9.421875 -14.5625 C 10.265625 -14.34375 10.988281 -14.019531 11.59375 -13.59375 L 10.90625 -11.90625 C 10.28125 -12.300781 9.617188 -12.597656 8.921875 -12.796875 C 8.222656 -13.003906 7.535156 -13.109375 6.859375 -13.109375 C 5.671875 -13.109375 4.773438 -12.890625 4.171875 -12.453125 C 3.578125 -12.023438 3.28125 -11.46875 3.28125 -10.78125 C 3.28125 -10.269531 3.445312 -9.859375 3.78125 -9.546875 C 4.125 -9.234375 4.539062 -8.988281 5.03125 -8.8125 C 5.53125 -8.632812 6.210938 -8.445312 7.078125 -8.25 C 8.179688 -7.976562 9.066406 -7.707031 9.734375 -7.4375 C 10.410156 -7.175781 10.988281 -6.769531 11.46875 -6.21875 C 11.957031 -5.675781 12.203125 -4.941406 12.203125 -4.015625 C 12.203125 -3.242188 11.988281 -2.539062 11.5625 -1.90625 C 11.144531 -1.269531 10.507812 -0.765625 9.65625 -0.390625 C 8.800781 -0.015625 7.75 0.171875 6.5 0.171875 Z M 6.5 0.171875 "/></g></g></g><g fill="rgb(0%, 0%, 0%)" fill-opacity="1"><g transform="translate(16.486485, 29.662983)"><g><path d="M 14.875 -14.734375 L 14.875 0 L 12.78125 0 L 12.78125 -6.5625 L 4.3125 -6.5625 L 4.3125 0 L 2.203125 0 L 2.203125 -14.734375 L 4.3125 -14.734375 L 4.3125 -8.390625 L 12.78125 -8.390625 L 12.78125 -14.734375 Z M 14.875 -14.734375 "/></g></g></g><g fill="rgb(0%, 0%, 0%)" fill-opacity="1"><g transform="translate(34.630863, 29.662983)"><g><path d="M 11.59375 -3.6875 L 3.765625 -3.6875 L 2.140625 0 L -0.015625 0 L 6.65625 -14.734375 L 8.734375 -14.734375 L 15.421875 0 L 13.21875 0 Z M 10.859375 -5.359375 L 7.6875 -12.59375 L 4.5 -5.359375 Z M 10.859375 -5.359375 "/></g></g></g><g fill="rgb(0%, 0%, 0%)" fill-opacity="1"><g transform="translate(51.091322, 29.662983)"><g><path d="M 14.875 -14.734375 L 14.875 0 L 13.15625 0 L 4.3125 -10.984375 L 4.3125 0 L 2.203125 0 L 2.203125 -14.734375 L 3.9375 -14.734375 L 12.78125 -3.75 L 12.78125 -14.734375 Z M 14.875 -14.734375 "/></g></g></g><g fill="rgb(0%, 0%, 0%)" fill-opacity="1"><g transform="translate(69.235701, 29.662983)"><g><path d="M 14.875 -14.734375 L 14.875 0 L 13.15625 0 L 4.3125 -10.984375 L 4.3125 0 L 2.203125 0 L 2.203125 -14.734375 L 3.9375 -14.734375 L 12.78125 -3.75 L 12.78125 -14.734375 Z M 14.875 -14.734375 "/></g></g></g><g fill="rgb(0%, 0%, 0%)" fill-opacity="1"><g transform="translate(87.38008, 29.662983)"><g><path d="M 11.59375 -3.6875 L 3.765625 -3.6875 L 2.140625 0 L -0.015625 0 L 6.65625 -14.734375 L 8.734375 -14.734375 L 15.421875 0 L 13.21875 0 Z M 10.859375 -5.359375 L 7.6875 -12.59375 L 4.5 -5.359375 Z M 10.859375 -5.359375 "/></g></g></g><g fill="rgb(0%, 0%, 0%)" fill-opacity="1"><g transform="translate(103.840537, 29.662983)"><g/></g></g><g fill="rgb(0%, 0%, 0%)" fill-opacity="1"><g transform="translate(110.555285, 29.662983)"><g><path d="M 6.5 0.171875 C 5.394531 0.171875 4.328125 0 3.296875 -0.34375 C 2.265625 -0.6875 1.453125 -1.132812 0.859375 -1.6875 L 1.640625 -3.328125 C 2.203125 -2.816406 2.921875 -2.40625 3.796875 -2.09375 C 4.671875 -1.78125 5.570312 -1.625 6.5 -1.625 C 7.71875 -1.625 8.628906 -1.828125 9.234375 -2.234375 C 9.835938 -2.648438 10.140625 -3.203125 10.140625 -3.890625 C 10.140625 -4.398438 9.972656 -4.8125 9.640625 -5.125 C 9.316406 -5.4375 8.910156 -5.675781 8.421875 -5.84375 C 7.941406 -6.019531 7.257812 -6.210938 6.375 -6.421875 C 5.269531 -6.679688 4.375 -6.945312 3.6875 -7.21875 C 3.007812 -7.488281 2.425781 -7.898438 1.9375 -8.453125 C 1.457031 -9.003906 1.21875 -9.75 1.21875 -10.6875 C 1.21875 -11.476562 1.425781 -12.1875 1.84375 -12.8125 C 2.257812 -13.445312 2.882812 -13.953125 3.71875 -14.328125 C 4.5625 -14.710938 5.609375 -14.90625 6.859375 -14.90625 C 7.734375 -14.90625 8.585938 -14.789062 9.421875 -14.5625 C 10.265625 -14.34375 10.988281 -14.019531 11.59375 -13.59375 L 10.90625 -11.90625 C 10.28125 -12.300781 9.617188 -12.597656 8.921875 -12.796875 C 8.222656 -13.003906 7.535156 -13.109375 6.859375 -13.109375 C 5.671875 -13.109375 4.773438 -12.890625 4.171875 -12.453125 C 3.578125 -12.023438 3.28125 -11.46875 3.28125 -10.78125 C 3.28125 -10.269531 3.445312 -9.859375 3.78125 -9.546875 C 4.125 -9.234375 4.539062 -8.988281 5.03125 -8.8125 C 5.53125 -8.632812 6.210938 -8.445312 7.078125 -8.25 C 8.179688 -7.976562 9.066406 -7.707031 9.734375 -7.4375 C 10.410156 -7.175781 10.988281 -6.769531 11.46875 -6.21875 C 11.957031 -5.675781 12.203125 -4.941406 12.203125 -4.015625 C 12.203125 -3.242188 11.988281 -2.539062 11.5625 -1.90625 C 11.144531 -1.269531 10.507812 -0.765625 9.65625 -0.390625 C 8.800781 -0.015625 7.75 0.171875 6.5 0.171875 Z M 6.5 0.171875 "/></g></g></g><g fill="rgb(0%, 0%, 0%)" fill-opacity="1"><g transform="translate(124.679295, 29.662983)"><g><path d="M 23.03125 -14.734375 L 18.09375 0 L 15.890625 0 L 11.875 -11.765625 L 7.84375 0 L 5.59375 0 L 0.671875 -14.734375 L 2.84375 -14.734375 L 6.8125 -2.75 L 10.96875 -14.734375 L 12.90625 -14.734375 L 16.96875 -2.6875 L 21.03125 -14.734375 Z M 23.03125 -14.734375 "/></g></g></g><g fill="rgb(0%, 0%, 0%)" fill-opacity="1"><g transform="translate(149.433072, 29.662983)"><g><path d="M 2.203125 -14.734375 L 4.3125 -14.734375 L 4.3125 0 L 2.203125 0 Z M 2.203125 -14.734375 "/></g></g></g><g fill="rgb(0%, 0%, 0%)" fill-opacity="1"><g transform="translate(157.010841, 29.662983)"><g><path d="M 14.875 -14.734375 L 14.875 0 L 13.15625 0 L 4.3125 -10.984375 L 4.3125 0 L 2.203125 0 L 2.203125 -14.734375 L 3.9375 -14.734375 L 12.78125 -3.75 L 12.78125 -14.734375 Z M 14.875 -14.734375 "/></g></g></g><g fill="rgb(0%, 0%, 0%)" fill-opacity="1"><g transform="translate(175.155221, 29.662983)"><g><path d="M 2.203125 -14.734375 L 8.421875 -14.734375 C 9.972656 -14.734375 11.351562 -14.421875 12.5625 -13.796875 C 13.769531 -13.179688 14.707031 -12.316406 15.375 -11.203125 C 16.039062 -10.085938 16.375 -8.804688 16.375 -7.359375 C 16.375 -5.921875 16.039062 -4.644531 15.375 -3.53125 C 14.707031 -2.414062 13.769531 -1.546875 12.5625 -0.921875 C 11.351562 -0.304688 9.972656 0 8.421875 0 L 2.203125 0 Z M 8.296875 -1.828125 C 9.484375 -1.828125 10.53125 -2.054688 11.4375 -2.515625 C 12.34375 -2.984375 13.039062 -3.632812 13.53125 -4.46875 C 14.019531 -5.300781 14.265625 -6.265625 14.265625 -7.359375 C 14.265625 -8.460938 14.019531 -9.429688 13.53125 -10.265625 C 13.039062 -11.097656 12.34375 -11.742188 11.4375 -12.203125 C 10.53125 -12.671875 9.484375 -12.90625 8.296875 -12.90625 L 4.3125 -12.90625 L 4.3125 -1.828125 Z M 8.296875 -1.828125 "/></g></g></g><g fill="rgb(0%, 0%, 0%)" fill-opacity="1"><g transform="translate(193.594288, 29.662983)"><g><path d="M 2.203125 -14.734375 L 4.3125 -14.734375 L 4.3125 -1.828125 L 12.296875 -1.828125 L 12.296875 0 L 2.203125 0 Z M 2.203125 -14.734375 "/></g></g></g><g fill="rgb(0%, 0%, 0%)" fill-opacity="1"><g transform="translate(207.149966, 29.662983)"><g><path d="M 12.90625 -1.828125 L 12.90625 0 L 2.203125 0 L 2.203125 -14.734375 L 12.609375 -14.734375 L 12.609375 -12.90625 L 4.3125 -12.90625 L 4.3125 -8.375 L 11.703125 -8.375 L 11.703125 -6.59375 L 4.3125 -6.59375 L 4.3125 -1.828125 Z M 12.90625 -1.828125 "/></g></g></g><g fill="rgb(100%, 100%, 100%)" fill-opacity="1"><g transform="translate(2.329437, 29.190484)"><g><path d="M 6.5 0.171875 C 5.394531 0.171875 4.328125 0 3.296875 -0.34375 C 2.265625 -0.6875 1.453125 -1.132812 0.859375 -1.6875 L 1.640625 -3.328125 C 2.203125 -2.816406 2.921875 -2.40625 3.796875 -2.09375 C 4.671875 -1.78125 5.570312 -1.625 6.5 -1.625 C 7.71875 -1.625 8.628906 -1.828125 9.234375 -2.234375 C 9.835938 -2.648438 10.140625 -3.203125 10.140625 -3.890625 C 10.140625 -4.398438 9.972656 -4.8125 9.640625 -5.125 C 9.316406 -5.4375 8.910156 -5.675781 8.421875 -5.84375 C 7.941406 -6.019531 7.257812 -6.210938 6.375 -6.421875 C 5.269531 -6.679688 4.375 -6.945312 3.6875 -7.21875 C 3.007812 -7.488281 2.425781 -7.898438 1.9375 -8.453125 C 1.457031 -9.003906 1.21875 -9.75 1.21875 -10.6875 C 1.21875 -11.476562 1.425781 -12.1875 1.84375 -12.8125 C 2.257812 -13.445312 2.882812 -13.953125 3.71875 -14.328125 C 4.5625 -14.710938 5.609375 -14.90625 6.859375 -14.90625 C 7.734375 -14.90625 8.585938 -14.789062 9.421875 -14.5625 C 10.265625 -14.34375 10.988281 -14.019531 11.59375 -13.59375 L 10.90625 -11.90625 C 10.28125 -12.300781 9.617188 -12.597656 8.921875 -12.796875 C 8.222656 -13.003906 7.535156 -13.109375 6.859375 -13.109375 C 5.671875 -13.109375 4.773438 -12.890625 4.171875 -12.453125 C 3.578125 -12.023438 3.28125 -11.46875 3.28125 -10.78125 C 3.28125 -10.269531 3.445312 -9.859375 3.78125 -9.546875 C 4.125 -9.234375 4.539062 -8.988281 5.03125 -8.8125 C 5.53125 -8.632812 6.210938 -8.445312 7.078125 -8.25 C 8.179688 -7.976562 9.066406 -7.707031 9.734375 -7.4375 C 10.410156 -7.175781 10.988281 -6.769531 11.46875 -6.21875 C 11.957031 -5.675781 12.203125 -4.941406 12.203125 -4.015625 C 12.203125 -3.242188 11.988281 -2.539062 11.5625 -1.90625 C 11.144531 -1.269531 10.507812 -0.765625 9.65625 -0.390625 C 8.800781 -0.015625 7.75 0.171875 6.5 0.171875 Z M 6.5 0.171875 "/></g></g></g><g fill="rgb(100%, 100%, 100%)" fill-opacity="1"><g transform="translate(16.453445, 29.190484)"><g><path d="M 14.875 -14.734375 L 14.875 0 L 12.78125 0 L 12.78125 -6.5625 L 4.3125 -6.5625 L 4.3125 0 L 2.203125 0 L 2.203125 -14.734375 L 4.3125 -14.734375 L 4.3125 -8.390625 L 12.78125 -8.390625 L 12.78125 -14.734375 Z M 14.875 -14.734375 "/></g></g></g><g fill="rgb(100%, 100%, 100%)" fill-opacity="1"><g transform="translate(34.597822, 29.190484)"><g><path d="M 11.59375 -3.6875 L 3.765625 -3.6875 L 2.140625 0 L -0.015625 0 L 6.65625 -14.734375 L 8.734375 -14.734375 L 15.421875 0 L 13.21875 0 Z M 10.859375 -5.359375 L 7.6875 -12.59375 L 4.5 -5.359375 Z M 10.859375 -5.359375 "/></g></g></g><g fill="rgb(100%, 100%, 100%)" fill-opacity="1"><g transform="translate(51.058281, 29.190484)"><g><path d="M 14.875 -14.734375 L 14.875 0 L 13.15625 0 L 4.3125 -10.984375 L 4.3125 0 L 2.203125 0 L 2.203125 -14.734375 L 3.9375 -14.734375 L 12.78125 -3.75 L 12.78125 -14.734375 Z M 14.875 -14.734375 "/></g></g></g><g fill="rgb(100%, 100%, 100%)" fill-opacity="1"><g transform="translate(69.202661, 29.190484)"><g><path d="M 14.875 -14.734375 L 14.875 0 L 13.15625 0 L 4.3125 -10.984375 L 4.3125 0 L 2.203125 0 L 2.203125 -14.734375 L 3.9375 -14.734375 L 12.78125 -3.75 L 12.78125 -14.734375 Z M 14.875 -14.734375 "/></g></g></g><g fill="rgb(100%, 100%, 100%)" fill-opacity="1"><g transform="translate(87.34704, 29.190484)"><g><path d="M 11.59375 -3.6875 L 3.765625 -3.6875 L 2.140625 0 L -0.015625 0 L 6.65625 -14.734375 L 8.734375 -14.734375 L 15.421875 0 L 13.21875 0 Z M 10.859375 -5.359375 L 7.6875 -12.59375 L 4.5 -5.359375 Z M 10.859375 -5.359375 "/></g></g></g><g fill="rgb(100%, 100%, 100%)" fill-opacity="1"><g transform="translate(103.807496, 29.190484)"><g/></g></g><g fill="rgb(100%, 100%, 100%)" fill-opacity="1"><g transform="translate(110.522245, 29.190484)"><g><path d="M 6.5 0.171875 C 5.394531 0.171875 4.328125 0 3.296875 -0.34375 C 2.265625 -0.6875 1.453125 -1.132812 0.859375 -1.6875 L 1.640625 -3.328125 C 2.203125 -2.816406 2.921875 -2.40625 3.796875 -2.09375 C 4.671875 -1.78125 5.570312 -1.625 6.5 -1.625 C 7.71875 -1.625 8.628906 -1.828125 9.234375 -2.234375 C 9.835938 -2.648438 10.140625 -3.203125 10.140625 -3.890625 C 10.140625 -4.398438 9.972656 -4.8125 9.640625 -5.125 C 9.316406 -5.4375 8.910156 -5.675781 8.421875 -5.84375 C 7.941406 -6.019531 7.257812 -6.210938 6.375 -6.421875 C 5.269531 -6.679688 4.375 -6.945312 3.6875 -7.21875 C 3.007812 -7.488281 2.425781 -7.898438 1.9375 -8.453125 C 1.457031 -9.003906 1.21875 -9.75 1.21875 -10.6875 C 1.21875 -11.476562 1.425781 -12.1875 1.84375 -12.8125 C 2.257812 -13.445312 2.882812 -13.953125 3.71875 -14.328125 C 4.5625 -14.710938 5.609375 -14.90625 6.859375 -14.90625 C 7.734375 -14.90625 8.585938 -14.789062 9.421875 -14.5625 C 10.265625 -14.34375 10.988281 -14.019531 11.59375 -13.59375 L 10.90625 -11.90625 C 10.28125 -12.300781 9.617188 -12.597656 8.921875 -12.796875 C 8.222656 -13.003906 7.535156 -13.109375 6.859375 -13.109375 C 5.671875 -13.109375 4.773438 -12.890625 4.171875 -12.453125 C 3.578125 -12.023438 3.28125 -11.46875 3.28125 -10.78125 C 3.28125 -10.269531 3.445312 -9.859375 3.78125 -9.546875 C 4.125 -9.234375 4.539062 -8.988281 5.03125 -8.8125 C 5.53125 -8.632812 6.210938 -8.445312 7.078125 -8.25 C 8.179688 -7.976562 9.066406 -7.707031 9.734375 -7.4375 C 10.410156 -7.175781 10.988281 -6.769531 11.46875 -6.21875 C 11.957031 -5.675781 12.203125 -4.941406 12.203125 -4.015625 C 12.203125 -3.242188 11.988281 -2.539062 11.5625 -1.90625 C 11.144531 -1.269531 10.507812 -0.765625 9.65625 -0.390625 C 8.800781 -0.015625 7.75 0.171875 6.5 0.171875 Z M 6.5 0.171875 "/></g></g></g><g fill="rgb(100%, 100%, 100%)" fill-opacity="1"><g transform="translate(124.646254, 29.190484)"><g><path d="M 23.03125 -14.734375 L 18.09375 0 L 15.890625 0 L 11.875 -11.765625 L 7.84375 0 L 5.59375 0 L 0.671875 -14.734375 L 2.84375 -14.734375 L 6.8125 -2.75 L 10.96875 -14.734375 L 12.90625 -14.734375 L 16.96875 -2.6875 L 21.03125 -14.734375 Z M 23.03125 -14.734375 "/></g></g></g><g fill="rgb(100%, 100%, 100%)" fill-opacity="1"><g transform="translate(149.400031, 29.190484)"><g><path d="M 2.203125 -14.734375 L 4.3125 -14.734375 L 4.3125 0 L 2.203125 0 Z M 2.203125 -14.734375 "/></g></g></g><g fill="rgb(100%, 100%, 100%)" fill-opacity="1"><g transform="translate(156.977801, 29.190484)"><g><path d="M 14.875 -14.734375 L 14.875 0 L 13.15625 0 L 4.3125 -10.984375 L 4.3125 0 L 2.203125 0 L 2.203125 -14.734375 L 3.9375 -14.734375 L 12.78125 -3.75 L 12.78125 -14.734375 Z M 14.875 -14.734375 "/></g></g></g><g fill="rgb(100%, 100%, 100%)" fill-opacity="1"><g transform="translate(175.12218, 29.190484)"><g><path d="M 2.203125 -14.734375 L 8.421875 -14.734375 C 9.972656 -14.734375 11.351562 -14.421875 12.5625 -13.796875 C 13.769531 -13.179688 14.707031 -12.316406 15.375 -11.203125 C 16.039062 -10.085938 16.375 -8.804688 16.375 -7.359375 C 16.375 -5.921875 16.039062 -4.644531 15.375 -3.53125 C 14.707031 -2.414062 13.769531 -1.546875 12.5625 -0.921875 C 11.351562 -0.304688 9.972656 0 8.421875 0 L 2.203125 0 Z M 8.296875 -1.828125 C 9.484375 -1.828125 10.53125 -2.054688 11.4375 -2.515625 C 12.34375 -2.984375 13.039062 -3.632812 13.53125 -4.46875 C 14.019531 -5.300781 14.265625 -6.265625 14.265625 -7.359375 C 14.265625 -8.460938 14.019531 -9.429688 13.53125 -10.265625 C 13.039062 -11.097656 12.34375 -11.742188 11.4375 -12.203125 C 10.53125 -12.671875 9.484375 -12.90625 8.296875 -12.90625 L 4.3125 -12.90625 L 4.3125 -1.828125 Z M 8.296875 -1.828125 "/></g></g></g><g fill="rgb(100%, 100%, 100%)" fill-opacity="1"><g transform="translate(193.561248, 29.190484)"><g><path d="M 2.203125 -14.734375 L 4.3125 -14.734375 L 4.3125 -1.828125 L 12.296875 -1.828125 L 12.296875 0 L 2.203125 0 Z M 2.203125 -14.734375 "/></g></g></g><g fill="rgb(100%, 100%, 100%)" fill-opacity="1"><g transform="translate(207.116925, 29.190484)"><g><path d="M 12.90625 -1.828125 L 12.90625 0 L 2.203125 0 L 2.203125 -14.734375 L 12.609375 -14.734375 L 12.609375 -12.90625 L 4.3125 -12.90625 L 4.3125 -8.375 L 11.703125 -8.375 L 11.703125 -6.59375 L 4.3125 -6.59375 L 4.3125 -1.828125 Z M 12.90625 -1.828125 "/></g></g></g></svg>