<?xml version="1.0" encoding="utf-8"?>
<!-- Generator: Adobe Illustrator 16.0.0, SVG Export Plug-In . SVG Version: 6.00 Build 0)  -->
<!DOCTYPE svg PUBLIC "-//W3C//DTD SVG 1.1//EN" "http://www.w3.org/Graphics/SVG/1.1/DTD/svg11.dtd">
<svg version="1.1" id="Layer_1" xmlns="http://www.w3.org/2000/svg" xmlns:xlink="http://www.w3.org/1999/xlink" x="0px" y="0px"
	 width="128px" height="128px" viewBox="0 0 128 128" enable-background="new 0 0 128 128" xml:space="preserve">
<g>
	<g>
		<path fill="#282D33" d="M22.076,128c-2.491,0-5-0.434-7.413-1.326l-2.909-1.077l13.167-13.313l-1.87-7.046l-6.923-1.877
			L2.937,116.699l-1.079-2.974c-2.88-7.938-0.926-16.923,4.977-22.89c5.34-5.399,13.032-7.558,20.331-5.778l17.459-17.655
			l2.844,2.813l-19.13,19.347l-1.156-0.353c-6.217-1.896-12.923-0.192-17.504,4.439c-4.039,4.083-5.813,9.9-4.898,15.498
			l10.144-10.258l11.402,3.091l3.048,11.489l-10.178,10.292c5.531,0.927,11.28-0.86,15.313-4.938
			c4.591-4.645,6.275-11.445,4.395-17.75l-0.339-1.136l18.458-18.661l2.845,2.813l-16.818,17.004
			c1.77,7.369-0.359,15.143-5.696,20.543C33.255,125.778,27.713,127.999,22.076,128z"/>
	</g>
	<g>
		<path fill="#282D33" d="M78.665,65.082l-2.844-2.813l22.793-23.053l1.155,0.353c6.218,1.894,12.92,0.192,17.502-4.44
			c4.036-4.082,5.809-9.897,4.896-15.497l-10.143,10.257l-11.405-3.092l-3.044-11.488l10.178-10.291
			c-5.524-0.93-11.279,0.858-15.313,4.938c-4.593,4.643-6.278,11.443-4.396,17.748l0.338,1.136L66.1,51.37l-2.843-2.813
			l20.64-20.872c-1.77-7.37,0.36-15.145,5.7-20.543c5.907-5.976,14.816-7.952,22.69-5.037l2.909,1.076L102.03,16.495l1.866,7.045
			l6.924,1.878l13.193-13.342l1.078,2.975c2.875,7.94,0.922,16.926-4.977,22.891c-5.341,5.401-13.033,7.559-20.329,5.778
			L78.665,65.082z"/>
	</g>
	<g>
		<g>
			<polygon fill="#282D33" points="127.453,127.391 105.255,120.759 102.65,118.128 105.492,115.313 107.378,117.218 
				121.551,121.453 117.351,107.074 115.463,105.166 118.31,102.354 120.907,104.982 			"/>
		</g>
		<g>
			<path fill="#282D33" d="M30.709,18.227l84.411,85.357l-11.225,11.348L19.485,29.574L30.709,18.227 M30.709,12.679L13.998,29.574
				l89.898,90.906l16.713-16.896L30.709,12.679L30.709,12.679z"/>
		</g>
		<g>
			
				<rect x="5.594" y="63.408" transform="matrix(0.7031 0.711 -0.711 0.7031 66.1439 -27.6139)" fill="#282D33" width="121.099" height="4.001"/>
		</g>
		<g>
			<path fill="#282D33" d="M7.595,22.026l-5.168-5.228C1.003,15.36,1.115,12.988,2.682,11.4L12.696,1.278
				C13.489,0.47,14.562,0.002,15.634,0c0.001,0,0.003,0,0.005,0c0.947,0,1.823,0.359,2.466,1.012l5.169,5.224L20.43,9.049
				l-4.897-4.95L5.528,14.211c-0.006,0.006-0.012,0.012-0.017,0.018l4.929,4.985L7.595,22.026z"/>
		</g>
		<g>
			<polygon fill="#282D33" points="16.292,34.74 5.669,23.998 25.194,4.255 35.847,15.028 33.002,17.841 25.194,9.943 
				11.295,23.998 19.136,31.928 			"/>
		</g>
	</g>
</g>
</svg>
